<?xml version="1.0" standalone="no"?>
<!DOCTYPE svg PUBLIC "-//W3C//DTD SVG 20010904//EN"
 "http://www.w3.org/TR/2001/REC-SVG-20010904/DTD/svg10.dtd">
<svg version="1.0" xmlns="http://www.w3.org/2000/svg"
 width="300.000000pt" height="282.000000pt" viewBox="0 0 300.000000 282.000000"
 preserveAspectRatio="xMidYMid meet">
<metadata>
Created by potrace 1.10, written by Peter Selinger 2001-2011
</metadata>
<g transform="translate(0.000000,282.000000) scale(0.100000,-0.100000)"
fill="#000000" stroke="none">
<path d="M1510 2591 c8 -6 43 -11 77 -11 40 0 63 -4 66 -12 3 -10 7 -10 17 -1
14 13 -4 17 -115 28 -43 4 -56 3 -45 -4z"/>
<path d="M1290 2580 c-96 -6 -236 -35 -278 -59 -13 -7 -8 -9 18 -6 34 3 70
-18 50 -30 -5 -3 -42 -16 -83 -30 -41 -13 -98 -38 -126 -54 -29 -17 -55 -31
-59 -31 -4 0 -29 -18 -56 -40 -26 -22 -52 -40 -57 -40 -14 0 -148 -144 -179
-193 -17 -28 -37 -47 -48 -47 -19 0 -49 -43 -68 -98 -13 -35 -1 -54 15 -25 5
10 26 34 46 53 78 75 115 115 115 125 1 10 50 50 50 40 0 -3 -32 -47 -71 -98
-64 -84 -162 -263 -171 -312 -2 -11 -10 -20 -18 -20 -11 0 -15 12 -16 42 -1
50 -5 57 -33 48 -12 -4 -18 -12 -14 -21 3 -8 -2 -25 -11 -39 -10 -16 -17 -52
-19 -105 -3 -74 -2 -81 20 -95 13 -9 23 -22 23 -30 0 -8 5 -15 10 -15 6 0 10
-33 10 -78 0 -68 -2 -79 -22 -91 -20 -12 -20 -14 -4 -23 11 -6 14 -13 8 -17
-6 -4 -7 -22 -2 -49 5 -29 4 -42 -3 -39 -17 5 -27 56 -27 132 2 134 1 137 -12
133 -31 -11 -4 -374 32 -423 4 -5 10 -23 14 -40 8 -35 54 -148 90 -220 13 -27
40 -66 60 -84 20 -19 36 -40 36 -46 0 -16 55 -70 72 -70 7 0 14 -10 16 -23 2
-13 9 -21 15 -19 7 2 23 -4 36 -14 13 -11 30 -19 39 -19 8 0 43 -27 79 -60 35
-33 72 -60 83 -60 10 0 22 -5 25 -10 4 -6 10 -8 15 -5 4 3 13 -2 20 -10 7 -8
18 -15 25 -15 7 0 23 -8 36 -18 32 -24 189 -60 318 -72 121 -12 326 -12 394
-1 26 4 47 4 47 0 0 -15 -191 -35 -315 -32 -115 2 -249 20 -327 44 -37 11 -75
19 -85 17 -28 -5 143 -55 248 -72 130 -21 270 -20 412 4 65 11 131 20 147 20
16 0 41 6 57 14 15 8 56 27 91 42 34 15 62 31 62 36 0 4 9 8 20 8 11 0 23 7
26 15 4 8 10 15 15 15 9 0 118 75 150 103 51 44 115 80 157 86 45 6 47 7 54
48 4 24 16 52 27 64 11 12 25 43 32 70 7 27 17 49 22 49 5 0 7 9 4 19 -3 12 1
22 9 25 8 3 14 19 14 38 0 18 13 69 30 113 53 141 80 363 50 400 -6 7 -9 41
-8 76 1 35 -4 91 -12 124 -7 33 -12 69 -11 79 2 10 -2 28 -7 40 -6 12 -14 47
-17 78 -4 32 -11 60 -16 63 -5 4 -9 14 -9 24 0 9 -9 27 -20 39 -11 12 -20 28
-20 36 0 9 -8 30 -19 48 -59 105 -71 123 -79 121 -5 -1 -9 3 -9 10 1 32 -4 48
-13 42 -5 -3 -6 -13 -3 -22 4 -11 3 -14 -5 -9 -7 4 -12 13 -12 20 0 7 -20 27
-45 46 -25 19 -45 37 -45 41 0 7 -65 65 -184 166 -34 28 -86 57 -92 50 -3 -3
14 -16 38 -31 24 -14 57 -37 73 -52 29 -25 29 -25 5 -19 -14 4 -48 20 -76 35
-28 16 -69 32 -90 36 -21 3 -43 10 -49 14 -16 13 -167 60 -191 60 -11 0 -24 3
-28 7 -3 4 -21 8 -39 9 -54 2 -57 3 -57 21 0 15 -1 16 -12 1 -14 -18 -68 -14
-68 4 0 6 8 7 18 3 13 -5 14 -3 6 5 -9 9 -17 9 -33 0 -24 -12 -141 -3 -141 11
0 5 23 9 50 9 28 0 50 5 50 10 0 6 -15 9 -32 8 -18 -1 -80 -5 -138 -8z m102
-59 c31 -11 84 -22 119 -26 174 -19 361 -69 505 -135 22 -10 63 -26 91 -35 74
-24 286 -231 338 -327 19 -38 32 -68 29 -68 -4 0 -1 -8 7 -17 31 -37 50 -97
69 -208 7 -38 16 -90 22 -115 5 -25 12 -79 14 -120 3 -41 9 -95 15 -120 16
-74 -1 -203 -46 -330 -15 -41 -32 -96 -39 -121 -20 -71 -54 -158 -89 -230 -29
-60 -36 -67 -72 -77 -22 -6 -76 -37 -120 -69 -187 -136 -252 -177 -359 -223
-39 -17 -60 -20 -105 -15 -79 8 -121 8 -246 0 -164 -11 -488 37 -534 79 -10 9
-21 16 -25 16 -23 0 -156 77 -192 112 -23 23 -56 47 -73 54 -37 16 -140 98
-160 128 -8 11 -27 35 -42 51 -35 37 -107 190 -148 313 -35 105 -37 128 -17
151 8 9 17 36 19 61 3 25 11 87 17 139 l12 93 -31 50 c-26 41 -31 60 -31 109
0 54 10 74 25 49 10 -16 40 -12 58 8 8 9 30 51 48 92 39 88 116 222 164 285
30 39 33 48 24 71 -9 24 -6 31 23 62 61 62 198 150 313 199 118 51 125 55 131
80 13 49 183 69 286 34z"/>
<path d="M1555 2243 c-16 -8 -50 -34 -75 -58 -44 -42 -46 -43 -134 -49 -165
-12 -185 -35 -167 -193 17 -155 21 -185 26 -213 2 -14 7 -50 10 -80 19 -200
34 -221 160 -239 80 -12 166 1 207 30 32 23 42 57 58 189 17 151 22 184 27
194 3 4 20 14 39 22 49 21 105 73 125 119 43 94 5 209 -87 266 -47 29 -145 35
-189 12z m163 -42 c64 -33 92 -79 92 -153 0 -54 -23 -108 -59 -135 -28 -23
-85 -44 -103 -39 -10 2 -18 0 -18 -4 0 -5 -6 -60 -14 -122 -8 -62 -18 -142
-21 -178 -9 -89 -22 -106 -92 -121 -63 -13 -191 -1 -216 20 -8 6 -19 57 -27
123 -7 62 -14 122 -16 133 -4 18 -13 88 -34 265 -5 47 -4 69 5 78 18 20 81 31
173 32 76 0 83 2 91 23 10 24 53 67 86 85 32 18 112 14 153 -7z"/>
<path d="M1592 2183 c-13 -2 -38 -20 -57 -39 -28 -28 -35 -42 -35 -74 0 -44 8
-47 75 -30 27 7 25 8 -17 9 -51 1 -54 5 -38 45 12 33 18 33 60 -7 21 -21 42
-32 52 -29 13 3 18 -2 18 -16 0 -11 16 -32 35 -46 19 -15 35 -31 35 -36 0 -9
-51 -40 -65 -40 -3 0 -5 21 -5 47 0 57 -5 53 -13 -9 -6 -47 -6 -48 20 -48 68
0 130 78 120 152 -12 90 -90 141 -185 121z m34 -58 c3 -25 5 -48 2 -50 -2 -2
-21 11 -42 29 l-39 33 24 16 c37 26 47 21 55 -28z m68 32 c17 -12 16 -15 -9
-45 -15 -18 -31 -32 -36 -32 -5 0 -9 20 -9 45 0 37 3 45 18 45 10 0 26 -6 36
-13z m56 -53 c16 -41 13 -44 -42 -44 l-52 0 34 35 c41 42 47 43 60 9z m10 -78
c0 -12 -6 -30 -12 -39 -12 -15 -17 -13 -50 18 -39 36 -37 40 30 42 27 1 32 -3
32 -21z"/>
<path d="M1310 2063 c-77 -13 -25 -31 93 -32 51 -1 57 1 57 19 0 18 -6 20 -62
19 -35 -1 -74 -4 -88 -6z"/>
<path d="M1539 2005 c-70 -12 -136 -12 -236 0 -57 6 -61 5 -57 -12 2 -10 15
-119 29 -243 14 -124 28 -233 31 -242 3 -10 20 -20 40 -24 38 -7 190 -1 199 8
8 8 11 30 29 203 9 83 21 187 27 233 6 46 10 84 8 85 -2 2 -34 -2 -70 -8z m19
-72 l-3 -28 -125 -1 c-127 -1 -140 3 -140 39 0 15 13 17 136 17 l135 0 -3 -27z
m12 -80 c7 -8 2 -60 -24 -258 l-11 -90 -52 -9 c-28 -5 -76 -5 -107 -2 -63 8
-57 -8 -76 176 -6 58 -13 124 -16 147 l-6 42 38 4 c56 7 246 -1 254 -10z"/>
<path d="M730 1298 c-19 -31 -20 -47 -18 -239 3 -187 5 -209 22 -228 22 -24
88 -29 129 -10 19 9 30 8 49 -5 28 -18 98 -13 134 11 20 13 26 12 53 -1 19
-10 56 -16 98 -16 79 0 123 21 148 70 17 32 35 32 35 0 0 -10 10 -31 23 -46
21 -25 29 -27 96 -26 76 0 104 13 117 54 5 18 8 17 24 -10 29 -47 19 -46 240
-42 47 1 90 1 95 0 24 -5 46 1 63 18 29 29 48 32 72 10 29 -27 65 -36 119 -27
70 10 78 31 56 139 -3 14 -8 39 -10 55 -3 17 -8 45 -11 63 -4 21 -1 40 10 57
11 16 16 47 16 93 0 55 -4 72 -21 91 -20 21 -25 22 -177 17 -87 -2 -168 -4
-182 -4 -14 0 -90 1 -170 2 -80 2 -154 -1 -166 -5 -11 -4 -29 -24 -39 -45 -18
-38 -18 -38 -27 -14 -18 49 -48 70 -99 70 -29 0 -51 -6 -59 -15 -7 -9 -29 -15
-51 -15 -21 0 -49 -4 -63 -10 -14 -5 -26 -6 -26 -2 0 4 -12 15 -28 24 -21 12
-53 16 -135 16 -59 0 -109 -4 -112 -8 -3 -5 -17 -5 -31 0 -14 6 -54 10 -90 10
-62 0 -65 -1 -84 -32z m175 -45 c4 -21 11 -60 16 -86 5 -26 9 -63 9 -82 0 -19
4 -36 9 -39 5 -4 7 47 3 119 l-5 125 47 0 46 0 0 -225 0 -226 -57 3 -58 3 -23
120 c-40 213 -40 213 -40 40 l0 -160 -51 -3 -51 -3 0 225 0 226 75 0 74 0 6
-37z m267 -125 l3 -163 25 0 25 0 3 148 3 147 49 0 50 0 0 -165 c0 -213 -9
-234 -105 -248 -56 -9 -116 7 -142 38 -22 25 -23 33 -23 216 l0 189 55 0 55 0
2 -162z m318 -15 l24 -178 18 110 c9 61 22 140 29 178 l11 67 34 0 c19 0 34
-4 34 -8 0 -16 -61 -417 -65 -429 -3 -9 -28 -13 -78 -13 l-74 0 -6 38 c-28
189 -58 380 -63 395 -5 15 2 17 53 17 l58 0 25 -177z m400 132 c0 -43 -1 -45
-30 -45 l-30 0 0 -120 0 -120 30 0 c30 0 30 0 30 -60 l0 -60 -110 0 -110 0 0
60 c0 60 0 60 30 60 l30 0 0 120 0 120 -30 0 c-29 0 -30 2 -30 45 l0 45 110 0
110 0 0 -45z m370 -30 c0 -73 -1 -75 -25 -75 -14 0 -25 -4 -25 -8 0 -7 43
-218 55 -269 5 -22 3 -23 -59 -23 -63 0 -64 0 -70 31 -6 29 -7 30 -58 27 -49
-3 -53 -5 -56 -30 -3 -26 -6 -28 -53 -28 -55 0 -55 -1 -38 82 43 218 43 218
24 218 -12 0 -15 14 -15 75 l0 75 160 0 160 0 0 -75z m-572 -131 c3 -61 0 -71
-19 -87 -12 -10 -24 -15 -27 -12 -10 10 21 176 32 172 6 -2 12 -35 14 -73z
m222 51 c8 -16 11 -41 7 -76 -7 -60 -8 -62 -31 -53 -13 5 -16 20 -16 73 0 86
14 105 40 56z"/>
<path d="M2067 1133 c-3 -5 -8 -29 -11 -55 l-7 -48 30 0 c29 0 30 2 21 26 -6
14 -10 39 -10 55 0 27 -13 39 -23 22z"/>
<path d="M901 764 c-17 -14 -31 -32 -31 -39 0 -21 51 -57 69 -49 9 4 25 7 36
7 11 -1 32 4 48 9 22 9 31 7 47 -7 13 -12 25 -15 37 -9 10 4 53 8 97 8 69 1
80 4 93 22 13 20 12 25 -10 50 -21 24 -28 27 -48 18 -13 -6 -33 -8 -44 -4 -11
4 -31 2 -46 -6 -23 -12 -29 -11 -39 1 -11 14 -16 14 -37 -1 -18 -11 -28 -13
-36 -5 -6 6 -24 11 -40 11 -15 0 -37 4 -47 10 -14 8 -25 4 -49 -16z m374 -16
c5 4 6 0 2 -9 -3 -9 -1 -21 5 -27 6 -6 1 -9 -16 -9 -23 0 -26 3 -26 36 1 32 2
34 14 19 7 -10 17 -14 21 -10z m-325 -18 c0 -23 -4 -30 -20 -30 -29 0 -38 30
-15 46 28 21 35 17 35 -16z m162 -17 c8 -10 4 -13 -17 -13 -23 0 -26 2 -15 15
10 12 10 15 0 15 -9 0 -9 4 1 17 13 15 14 15 18 -3 2 -10 8 -25 13 -31z m-84
18 c3 -8 0 -11 -7 -7 -6 4 -11 1 -11 -8 0 -9 -4 -16 -10 -16 -5 0 -10 12 -10
26 0 18 5 25 17 22 9 -2 18 -9 21 -17z m170 -9 c2 -12 -1 -22 -7 -22 -6 0 -12
8 -12 18 -1 16 -2 16 -6 0 -6 -24 -23 -23 -23 0 0 39 43 43 48 4z"/>
<path d="M1552 774 c-17 -13 -25 -14 -36 -5 -11 9 -20 10 -35 1 -15 -8 -26 -7
-40 2 -15 9 -24 8 -45 -5 -31 -21 -34 -57 -6 -82 17 -16 24 -16 44 -6 18 10
28 10 45 1 18 -9 27 -8 47 5 20 13 28 14 40 4 11 -9 18 -8 34 6 19 17 21 17
41 -1 17 -15 23 -16 40 -6 16 10 25 9 50 -3 25 -13 33 -14 46 -3 21 17 92 17
125 -1 21 -11 30 -12 41 -3 8 7 27 10 43 6 16 -3 40 -1 54 4 16 6 31 5 42 -2
14 -8 22 -6 40 11 19 20 20 25 8 47 -15 30 -35 39 -58 27 -9 -5 -51 -7 -92 -5
-42 1 -82 -1 -90 -6 -7 -5 -21 -4 -31 3 -13 8 -24 8 -41 0 -18 -8 -28 -7 -42
3 -13 9 -24 10 -36 4 -12 -6 -23 -5 -36 5 -23 17 -54 19 -54 4 0 -6 -8 -9 -17
-6 -48 15 -60 15 -81 1z m54 -27 c1 -9 -2 -17 -7 -17 -5 0 -9 -7 -9 -15 0 -23
-17 -18 -23 7 -7 24 9 51 26 45 6 -2 11 -11 13 -20z m84 3 c0 -11 -5 -20 -11
-20 -5 0 -8 -4 -4 -9 3 -5 1 -12 -4 -15 -13 -8 -20 28 -9 48 12 22 28 20 28
-4z m-250 -20 c0 -23 -4 -30 -20 -30 -29 0 -38 30 -15 46 28 21 35 17 35 -16z
m70 16 c0 -8 3 -21 6 -30 4 -11 0 -16 -14 -16 -17 0 -20 5 -18 28 4 33 4 32
16 32 6 0 10 -6 10 -14z m600 -1 c10 -12 10 -15 -1 -16 -10 0 -11 -2 -1 -6 17
-7 15 -23 -3 -23 -17 0 -39 36 -30 50 9 14 21 12 35 -5z m-337 -8 c8 -20 -9
-41 -27 -34 -19 8 -21 33 -3 40 20 9 25 8 30 -6z m87 -2 c0 -8 -6 -12 -14 -9
-8 3 -16 -2 -19 -13 -3 -13 -5 -11 -6 7 -1 19 4 26 19 27 11 1 20 -4 20 -12z
m83 2 c8 -20 -9 -41 -27 -34 -19 8 -21 33 -3 40 20 9 25 8 30 -6z m85 -14 c3
-17 -2 -21 -17 -20 -15 1 -21 8 -21 25 0 31 34 26 38 -5z"/>
<path d="M935 2494 c-22 -8 -47 -21 -55 -29 -19 -19 -1 -19 24 0 11 8 27 15
37 15 9 0 22 7 29 15 15 18 16 18 -35 -1z"/>
<path d="M730 2370 c-35 -30 -35 -39 0 -20 16 9 48 51 38 50 -2 0 -19 -14 -38
-30z"/>
<path d="M663 2318 c-29 -14 -38 -37 -13 -35 11 1 17 3 15 6 -3 2 2 13 12 23
18 20 17 21 -14 6z"/>
<path d="M562 2210 c-34 -33 -64 -70 -67 -80 -4 -11 -10 -20 -14 -20 -4 0 -13
-11 -19 -25 -15 -32 1 -33 18 0 7 13 18 22 23 18 6 -3 7 -2 4 4 -3 5 10 25 29
44 47 45 98 109 91 115 -2 3 -32 -22 -65 -56z"/>
<path d="M2715 1358 c-4 -13 -7 -35 -6 -50 1 -14 -3 -29 -8 -33 -6 -3 -11 -17
-11 -31 0 -13 -4 -24 -10 -24 -5 0 -10 7 -10 17 0 42 -10 -1 -15 -65 -3 -40
-15 -93 -25 -118 -11 -25 -20 -54 -20 -65 0 -11 -5 -29 -12 -42 -32 -62 -37
-80 -16 -59 18 18 28 15 28 -10 0 -20 1 -20 20 -3 10 9 27 38 36 64 9 25 23
62 32 81 8 19 17 54 20 77 2 24 9 43 14 43 6 0 8 6 5 14 -3 8 1 40 10 72 11
44 12 63 4 76 -6 10 -11 31 -11 48 0 35 -14 40 -25 8z"/>
</g>
</svg>
